<?xml version="1.0" encoding="UTF-8"?>
<!-- Generator: visioncortex VTracer 0.6.12 -->
<svg version="1.1" xmlns="http://www.w3.org/2000/svg" width="512" height="512">
<path d="M0,0 L64,0 L72,4 L77,7 L80,12 L81,21 L83,27 L85,27 L85,34 L87,40 L89,40 L91,47 L92,57 L104,95 L106,96 L107,105 L109,111 L111,111 L112,118 L114,127 L116,127 L117,134 L118,137 L120,140 L120,147 L122,150 L124,154 L124,160 L126,160 L126,167 L128,167 L129,176 L131,180 L132,183 L133,189 L135,189 L137,195 L137,202 L139,208 L141,208 L141,215 L149,240 L151,241 L152,250 L154,257 L156,257 L157,266 L159,266 L160,276 L162,276 L165,285 L165,292 L167,292 L168,299 L169,302 L171,305 L173,311 L173,318 L175,321 L176,325 L177,333 L179,333 L179,350 L171,363 L169,364 L167,369 L163,373 L161,377 L157,383 L155,384 L153,389 L142,405 L134,416 L132,417 L130,422 L125,427 L123,429 L117,428 L117,423 L115,421 L113,415 L113,408 L111,408 L111,401 L109,398 L107,395 L106,385 L104,385 L102,372 L100,365 L98,365 L97,356 L95,356 L94,346 L92,345 L91,336 L89,336 L89,330 L87,330 L87,323 L85,320 L83,316 L81,310 L81,303 L79,302 L75,290 L75,284 L73,284 L70,271 L69,268 L67,265 L62,247 L60,238 L58,232 L57,228 L56,225 L55,225 L51,210 L49,205 L49,199 L47,199 L47,194 L45,191 L43,186 L43,180 L41,180 L35,160 L35,155 L33,153 L26,129 L17,100 L11,80 L8,68 L5,59 L-2,38 L-12,6 L-11,1 Z M75,8 Z M76,9 Z M-9,11 Z M77,11 Z M78,13 L79,15 Z M-8,14 L-7,16 Z M-7,17 L-6,19 Z M-6,21 L-5,23 Z M-5,24 Z M-4,27 Z M88,44 L89,47 Z M89,47 L90,50 Z M18,99 Z M20,105 Z M22,112 Z M23,115 L24,117 Z M110,115 L111,118 Z M24,118 L25,120 Z M25,121 L26,123 Z M26,125 Z M27,128 Z M28,131 Z M115,131 L116,134 Z M30,138 Z M31,141 Z M118,141 L119,143 Z M32,144 L33,146 Z M33,147 L34,149 Z M34,151 L35,153 Z M122,154 L123,156 Z M36,157 L37,160 Z M37,161 Z M38,163 L39,165 Z M39,167 Z M40,171 Z M41,173 L42,176 Z M44,183 L45,186 Z M45,187 Z M134,193 L135,195 Z M135,195 L136,198 Z M50,203 Z M51,206 L52,208 Z M52,209 Z M62,242 L63,245 Z M63,245 Z M64,248 L65,250 Z M65,251 L66,254 Z M66,255 L67,257 Z M67,258 L68,260 Z M68,261 L69,264 Z M158,270 L159,272 Z M71,271 Z M72,274 L73,277 Z M73,277 Z M73,279 Z M161,280 L162,283 Z M162,283 L163,285 Z M163,286 L164,289 Z M76,287 L77,290 Z M77,291 L78,293 Z M78,294 L79,297 Z M166,296 L167,298 Z M79,297 Z M169,306 L170,308 Z M82,307 L83,309 Z M170,309 L171,311 Z M83,310 L84,312 Z M171,312 L172,314 Z M84,313 L85,316 Z M95,349 L96,352 Z M176,350 Z M175,352 Z M174,354 Z M173,355 Z M172,357 Z M171,358 Z M170,360 Z M167,364 Z M166,366 Z M165,367 Z M164,369 Z M163,370 Z M160,374 Z M159,376 Z M158,377 Z M104,379 L105,381 Z M157,379 Z M156,380 Z M153,384 Z M152,386 Z M151,387 Z M107,389 L108,391 Z M150,389 Z M149,390 Z M108,392 L109,394 Z M148,392 Z M147,393 Z M146,395 Z M145,396 Z M144,398 Z M143,399 Z M141,402 Z M140,403 Z M139,405 Z M138,406 Z M137,408 Z M136,409 Z M114,412 L115,414 Z M134,412 Z M133,413 Z M115,415 L116,417 Z M116,418 L117,420 Z M130,418 Z M129,419 Z M128,420 Z M127,422 Z M126,423 Z M125,424 Z " fill="#000000" transform="translate(51,45)"/>
<path d="M0,0 L79,0 L86,5 L89,8 L91,12 L91,19 L93,22 L95,26 L98,35 L99,44 L101,44 L101,51 L103,51 L104,58 L106,68 L108,74 L110,74 L110,81 L112,84 L114,87 L114,94 L116,100 L118,100 L119,107 L121,116 L124,126 L126,126 L127,133 L128,139 L130,139 L130,146 L132,152 L134,152 L134,159 L137,168 L139,168 L141,178 L142,181 L144,185 L145,191 L147,201 L149,204 L150,208 L152,217 L154,217 L154,224 L156,228 L158,231 L158,238 L162,251 L164,251 L166,257 L166,264 L169,274 L171,275 L172,284 L174,291 L176,291 L177,298 L179,308 L185,328 L186,333 L186,354 L184,356 L183,360 L174,373 L172,374 L170,379 L163,389 L161,390 L159,395 L151,406 L149,407 L148,409 L146,413 L143,416 L141,419 L139,423 L134,427 L133,429 L127,428 L126,418 L124,418 L122,411 L122,404 L120,404 L119,397 L118,391 L116,391 L116,384 L114,381 L112,377 L110,371 L110,364 L108,360 L107,357 L106,350 L104,350 L103,341 L101,341 L101,334 L99,334 L98,327 L97,324 L95,320 L94,311 L92,304 L90,304 L90,297 L88,293 L86,290 L86,284 L84,284 L83,274 L81,274 L77,261 L77,254 L75,254 L75,248 L73,248 L71,238 L69,235 L69,228 L67,225 L65,222 L65,215 L59,195 L57,195 L57,188 L55,188 L54,179 L52,179 L50,173 L50,166 L48,162 L47,159 L46,153 L44,153 L43,143 L41,143 L39,133 L38,130 L36,126 L34,114 L32,114 L29,105 L29,98 L27,98 L27,92 L25,92 L21,79 L21,72 L19,66 L17,66 L14,57 L14,50 L12,50 L12,43 L9,33 L7,33 L6,26 L5,23 L4,20 L3,13 L1,13 L0,4 Z M1,7 Z M86,7 Z M87,8 L88,10 Z M1,9 Z M88,11 Z M89,13 L90,16 Z M93,26 L94,28 Z M7,27 L8,30 Z M94,29 L95,31 Z M95,32 L96,34 Z M96,35 L97,37 Z M15,53 L16,56 Z M102,55 L103,57 Z M16,57 L17,59 Z M17,59 Z M17,61 Z M22,75 L23,78 Z M23,79 L24,81 Z M24,82 L25,84 Z M25,85 L26,88 Z M112,88 L113,90 Z M28,95 Z M30,101 Z M30,103 Z M117,104 L118,107 Z M31,105 L32,107 Z M32,108 L33,110 Z M36,121 L37,123 Z M37,124 L38,126 Z M125,130 L126,133 Z M40,134 L41,136 Z M41,136 Z M41,138 Z M44,147 L45,149 Z M51,169 L52,172 Z M138,172 L139,174 Z M52,173 L53,175 Z M139,175 L140,177 Z M142,185 L143,187 Z M143,188 L144,190 Z M66,218 L67,221 Z M70,231 L71,234 Z M156,232 L157,234 Z M72,238 L73,240 Z M73,241 L74,244 Z M76,251 Z M163,255 L164,257 Z M78,258 L79,260 Z M164,258 L165,261 Z M79,261 L80,264 Z M80,265 L81,267 Z M81,267 Z M81,269 Z M84,278 L85,280 Z M87,287 Z M87,289 Z M175,295 L176,297 Z M96,317 Z M96,319 Z M99,327 L100,330 Z M184,353 Z M181,358 Z M180,360 Z M179,361 Z M178,363 Z M177,364 Z M176,366 Z M175,367 Z M111,368 L112,371 Z M174,369 Z M173,370 Z M112,372 Z M113,374 L114,377 Z M170,374 Z M169,376 Z M168,377 Z M167,379 Z M166,380 Z M165,382 Z M164,383 Z M163,385 Z M162,386 Z M159,390 Z M158,392 Z M157,393 Z M156,395 Z M155,396 Z M154,397 Z M120,398 L121,400 Z M153,399 Z M152,400 Z M151,402 Z M150,403 Z M123,408 L124,411 Z M145,410 Z M124,411 L125,414 Z M144,412 Z M143,413 Z M138,420 Z M137,422 Z " fill="#000000" transform="translate(206,45)"/>
<path d="M0,0 L19,0 L33,3 L47,10 L55,16 L59,18 L60,22 L63,23 L64,27 L66,29 L69,32 L72,38 L73,42 L75,45 L76,51 L78,63 L79,68 L79,94 L76,109 L76,115 L74,120 L72,120 L69,128 L68,132 L64,139 L61,140 L60,145 L58,146 L56,151 L51,156 L49,158 L48,161 L45,162 L44,166 L42,167 L41,170 L37,172 L36,176 L32,180 L27,181 L25,180 L25,175 L23,175 L23,169 L21,169 L21,162 L18,153 L16,153 L16,146 L14,146 L13,137 L11,137 L9,131 L9,124 L7,124 L5,114 L4,111 L3,107 L2,105 L0,101 L-4,88 L-5,79 L-7,79 L-9,66 L-11,60 L-13,60 L-14,53 L-15,47 L-17,47 L-19,41 L-19,34 L-22,25 L-24,25 L-25,15 L-27,15 L-28,8 L-23,6 L-8,1 Z M55,17 Z M56,18 Z M-24,19 L-23,21 Z M66,31 Z M67,32 L68,34 Z M68,35 Z M-18,37 L-17,40 Z M69,37 Z M70,39 Z M-17,41 L-16,43 Z M73,45 L74,47 Z M74,48 L75,50 Z M-13,54 L-12,56 Z M-7,73 L-6,75 Z M-3,86 L-2,88 Z M-2,89 L-1,91 Z M-1,92 L0,94 Z M0,95 L1,98 Z M1,98 Z M1,100 Z M74,112 L75,114 Z M6,114 Z M73,115 L74,117 Z M6,116 Z M7,117 L8,120 Z M10,127 L11,130 Z M67,129 Z M11,131 L12,133 Z M66,131 Z M65,133 Z M64,134 Z M63,136 Z M15,143 Z M56,146 Z M55,148 Z M54,149 Z M53,150 Z M52,152 Z M51,153 Z M43,163 Z M40,167 Z M35,173 Z M34,175 Z M33,176 Z M32,177 Z " fill="#000000" transform="translate(399,42)"/>
<path d="M0,0 L3,3 L11,28 L14,38 L19,56 L21,62 L21,66 L23,66 L25,77 L23,78 L15,52 L12,40 L9,31 L2,10 Z M22,71 Z " fill="#000000" transform="translate(47,73)"/>
<path d="M0,0 L79,0 L82,3 L77,2 L11,2 L3,3 L1,7 Z " fill="#000000" transform="translate(206,45)"/>
<path d="M0,0 L76,0 L76,1 L0,1 Z " fill="#000000" transform="translate(209,43)"/>
<path d="M0,0 L71,0 L71,1 L-4,2 Z " fill="#000000" transform="translate(45,43)"/>
<path d="M0,0 L2,1 L5,10 L5,16 L7,17 L8,25 L6,28 L3,18 L3,11 L1,10 L-1,5 Z M0,2 L1,5 Z M1,5 Z M5,18 L6,20 Z M6,21 L7,24 Z " fill="#000000" transform="translate(129,337)"/>
<path d="M0,0 L1,3 L0,13 L-2,18 L-4,18 L-8,27 L-9,24 L-9,19 L-6,19 L-5,15 Z M-2,10 L-1,12 Z M-3,13 L-2,15 Z " fill="#000000" transform="translate(475,144)"/>
<path d="M0,0 L2,2 L6,15 L8,17 L10,19 L9,21 L3,20 L2,10 L0,10 L-1,3 Z M0,3 L1,6 Z " fill="#000000" transform="translate(330,453)"/>
<path d="M0,0 L3,4 L4,13 L6,13 L6,18 L3,18 L2,9 L0,5 L-1,1 Z " fill="#000000" transform="translate(109,272)"/>
<path d="M0,0 L2,1 L5,13 L6,18 L3,18 L-1,1 Z M0,2 Z " fill="#000000" transform="translate(103,252)"/>
<path d="M0,0 L2,0 L6,11 L5,17 L3,14 L0,3 Z M2,6 Z M3,9 L4,11 Z M4,12 L5,14 Z " fill="#000000" transform="translate(71,151)"/>
<path d="M0,0 L2,2 L4,9 L3,13 L1,13 L-1,5 Z M0,4 Z M1,6 L2,9 Z " fill="#000000" transform="translate(91,212)"/>
<path d="M0,0 L2,2 L4,9 L3,15 L1,12 L1,6 L-1,6 Z M2,10 Z " fill="#000000" transform="translate(99,238)"/>
<path d="M0,0 L2,0 L4,5 L5,12 L3,14 L0,3 Z M2,6 Z " fill="#000000" transform="translate(79,177)"/>
<path d="M0,0 L1,0 L1,26 L0,26 Z " fill="#000000" transform="translate(479,110)"/>
<path d="M0,0 L3,0 L2,3 L-1,7 L-3,12 L-4,9 L-4,4 L-1,4 Z " fill="#000000" transform="translate(470,159)"/>
<path d="M0,0 L2,3 L3,11 L1,12 L-1,3 Z M0,5 Z " fill="#000000" transform="translate(69,139)"/>
<path d="M0,0 L2,4 L2,20 L1,20 Z " fill="#000000" transform="translate(392,373)"/>
<path d="M0,0 L21,0 L21,1 L0,1 Z " fill="#000000" transform="translate(398,40)"/>
<path d="M0,0 L11,1 L11,2 L3,3 L1,7 Z " fill="#000000" transform="translate(206,45)"/>
<path d="M0,0 L2,1 L3,7 L1,9 L-1,1 Z M0,2 Z " fill="#000000" transform="translate(103,252)"/>
<path d="M0,0 L2,3 L1,7 Z " fill="#000000" transform="translate(297,349)"/>
<path d="M0,0 L1,0 L1,7 L0,7 Z " fill="#000000" transform="translate(478,136)"/>
<path d="M0,0 L7,0 L7,1 L0,1 Z " fill="#000000" transform="translate(391,41)"/>
<path d="M0,0 L6,0 L6,1 L0,1 Z " fill="#000000" transform="translate(419,41)"/>
<path d="M0,0 L1,0 L1,5 L0,5 Z " fill="#000000" transform="translate(478,105)"/>
<path d="M0,0 L1,0 L1,5 L0,5 Z " fill="#000000" transform="translate(477,100)"/>
<path d="M0,0 L0,3 Z " fill="#000000" transform="translate(341,471)"/>
<path d="M0,0 L1,4 Z " fill="#000000" transform="translate(331,463)"/>
<path d="M0,0 L1,4 Z " fill="#000000" transform="translate(150,410)"/>
<path d="M0,0 L1,4 Z " fill="#000000" transform="translate(314,405)"/>
<path d="M0,0 L1,4 Z " fill="#000000" transform="translate(311,395)"/>
<path d="M0,0 L1,4 Z " fill="#000000" transform="translate(392,393)"/>
<path d="M0,0 L1,4 Z " fill="#000000" transform="translate(228,374)"/>
<path d="M0,0 L1,4 Z " fill="#000000" transform="translate(391,369)"/>
<path d="M0,0 L1,4 Z " fill="#000000" transform="translate(388,359)"/>
<path d="M0,0 L1,4 Z " fill="#000000" transform="translate(385,349)"/>
<path d="M0,0 L1,4 Z " fill="#000000" transform="translate(380,332)"/>
<path d="M0,0 L1,4 Z " fill="#000000" transform="translate(368,292)"/>
<path d="M0,0 L1,4 Z " fill="#000000" transform="translate(361,269)"/>
<path d="M0,0 L1,4 Z " fill="#000000" transform="translate(195,266)"/>
<path d="M0,0 L1,4 Z " fill="#000000" transform="translate(267,250)"/>
<path d="M0,0 L1,4 Z " fill="#000000" transform="translate(353,242)"/>
<path d="M0,0 L1,4 Z " fill="#000000" transform="translate(264,240)"/>
<path d="M0,0 L1,4 Z " fill="#000000" transform="translate(254,207)"/>
<path d="M0,0 L1,4 Z " fill="#000000" transform="translate(171,188)"/>
<path d="M0,0 L0,3 Z " fill="#000000" transform="translate(461,181)"/>
<path d="M0,0 L1,4 Z " fill="#000000" transform="translate(328,161)"/>
<path d="M0,0 L1,4 Z " fill="#000000" transform="translate(476,147)"/>
<path d="M0,0 L1,4 Z " fill="#000000" transform="translate(477,143)"/>
<path d="M0,0 L1,4 Z " fill="#000000" transform="translate(312,109)"/>
<path d="M0,0 L1,4 Z " fill="#000000" transform="translate(143,98)"/>
<path d="M0,0 L1,4 Z " fill="#000000" transform="translate(476,96)"/>
<path d="M0,0 L1,4 Z " fill="#000000" transform="translate(208,58)"/>
<path d="M0,0 L4,1 Z " fill="#000000" transform="translate(425,42)"/>
<path d="M0,0 Z " fill="#000000" transform="translate(163,453)"/>
<path d="M0,0 Z " fill="#000000" transform="translate(327,449)"/>
<path d="M0,0 Z " fill="#000000" transform="translate(161,446)"/>
<path d="M0,0 Z " fill="#000000" transform="translate(160,443)"/>
<path d="M0,0 Z " fill="#000000" transform="translate(324,439)"/>
<path d="M0,0 Z " fill="#000000" transform="translate(323,436)"/>
<path d="M0,0 Z " fill="#000000" transform="translate(156,430)"/>
<path d="M0,0 Z " fill="#000000" transform="translate(321,429)"/>
<path d="M0,0 Z " fill="#000000" transform="translate(320,426)"/>
<path d="M0,0 Z " fill="#000000" transform="translate(153,420)"/>
<path d="M0,0 Z " fill="#000000" transform="translate(152,417)"/>
<path d="M0,0 Z " fill="#000000" transform="translate(151,414)"/>
<path d="M0,0 Z " fill="#000000" transform="translate(315,409)"/>
<path d="M0,0 Z " fill="#000000" transform="translate(148,404)"/>
<path d="M0,0 Z " fill="#000000" transform="translate(147,401)"/>
<path d="M0,0 Z " fill="#000000" transform="translate(312,399)"/>
<path d="M0,0 Z " fill="#000000" transform="translate(309,389)"/>
<path d="M0,0 Z " fill="#000000" transform="translate(308,386)"/>
<path d="M0,0 Z " fill="#000000" transform="translate(142,384)"/>
<path d="M0,0 Z " fill="#000000" transform="translate(141,381)"/>
<path d="M0,0 Z " fill="#000000" transform="translate(306,379)"/>
<path d="M0,0 Z " fill="#000000" transform="translate(227,370)"/>
<path d="M0,0 Z " fill="#000000" transform="translate(303,369)"/>
<path d="M0,0 Z " fill="#000000" transform="translate(137,368)"/>
<path d="M0,0 Z " fill="#000000" transform="translate(390,366)"/>
<path d="M0,0 Z " fill="#000000" transform="translate(136,365)"/>
<path d="M0,0 Z " fill="#000000" transform="translate(389,363)"/>
<path d="M0,0 Z " fill="#000000" transform="translate(225,363)"/>
<path d="M0,0 Z " fill="#000000" transform="translate(224,360)"/>
<path d="M0,0 Z " fill="#000000" transform="translate(300,359)"/>
<path d="M0,0 Z " fill="#000000" transform="translate(387,356)"/>
<path d="M0,0 Z " fill="#000000" transform="translate(299,356)"/>
<path d="M0,0 Z " fill="#000000" transform="translate(386,353)"/>
<path d="M0,0 Z " fill="#000000" transform="translate(131,348)"/>
<path d="M0,0 Z " fill="#000000" transform="translate(384,346)"/>
<path d="M0,0 Z " fill="#000000" transform="translate(219,344)"/>
<path d="M0,0 Z " fill="#000000" transform="translate(383,343)"/>
<path d="M0,0 Z " fill="#000000" transform="translate(295,342)"/>
<path d="M0,0 Z " fill="#000000" transform="translate(294,338)"/>
<path d="M0,0 Z " fill="#000000" transform="translate(216,334)"/>
<path d="M0,0 Z " fill="#000000" transform="translate(379,329)"/>
<path d="M0,0 Z " fill="#000000" transform="translate(291,329)"/>
<path d="M0,0 Z " fill="#000000" transform="translate(378,326)"/>
<path d="M0,0 Z " fill="#000000" transform="translate(377,323)"/>
<path d="M0,0 Z " fill="#000000" transform="translate(288,319)"/>
<path d="M0,0 Z " fill="#000000" transform="translate(211,318)"/>
<path d="M0,0 Z " fill="#000000" transform="translate(375,316)"/>
<path d="M0,0 Z " fill="#000000" transform="translate(374,313)"/>
<path d="M0,0 Z " fill="#000000" transform="translate(120,313)"/>
<path d="M0,0 Z " fill="#000000" transform="translate(373,310)"/>
<path d="M0,0 Z " fill="#000000" transform="translate(208,308)"/>
<path d="M0,0 Z " fill="#000000" transform="translate(372,306)"/>
<path d="M0,0 Z " fill="#000000" transform="translate(207,305)"/>
<path d="M0,0 Z " fill="#000000" transform="translate(282,299)"/>
<path d="M0,0 Z " fill="#000000" transform="translate(205,299)"/>
<path d="M0,0 Z " fill="#000000" transform="translate(204,295)"/>
<path d="M0,0 Z " fill="#000000" transform="translate(280,293)"/>
<path d="M0,0 Z " fill="#000000" transform="translate(203,292)"/>
<path d="M0,0 Z " fill="#000000" transform="translate(367,289)"/>
<path d="M0,0 Z " fill="#000000" transform="translate(202,289)"/>
<path d="M0,0 Z " fill="#000000" transform="translate(366,286)"/>
<path d="M0,0 Z " fill="#000000" transform="translate(365,283)"/>
<path d="M0,0 Z " fill="#000000" transform="translate(364,280)"/>
<path d="M0,0 Z " fill="#000000" transform="translate(199,279)"/>
<path d="M0,0 Z " fill="#000000" transform="translate(274,273)"/>
<path d="M0,0 Z " fill="#000000" transform="translate(197,273)"/>
<path d="M0,0 Z " fill="#000000" transform="translate(273,270)"/>
<path d="M0,0 Z " fill="#000000" transform="translate(196,270)"/>
<path d="M0,0 Z " fill="#000000" transform="translate(360,266)"/>
<path d="M0,0 Z " fill="#000000" transform="translate(194,263)"/>
<path d="M0,0 Z " fill="#000000" transform="translate(270,260)"/>
<path d="M0,0 Z " fill="#000000" transform="translate(193,260)"/>
<path d="M0,0 Z " fill="#000000" transform="translate(358,259)"/>
<path d="M0,0 Z " fill="#000000" transform="translate(269,257)"/>
<path d="M0,0 Z " fill="#000000" transform="translate(192,257)"/>
<path d="M0,0 Z " fill="#000000" transform="translate(357,256)"/>
<path d="M0,0 Z " fill="#000000" transform="translate(268,254)"/>
<path d="M0,0 Z " fill="#000000" transform="translate(356,253)"/>
<path d="M0,0 Z " fill="#000000" transform="translate(190,250)"/>
<path d="M0,0 Z " fill="#000000" transform="translate(266,247)"/>
<path d="M0,0 Z " fill="#000000" transform="translate(189,247)"/>
<path d="M0,0 Z " fill="#000000" transform="translate(354,246)"/>
<path d="M0,0 Z " fill="#000000" transform="translate(265,244)"/>
<path d="M0,0 Z " fill="#000000" transform="translate(188,244)"/>
<path d="M0,0 Z " fill="#000000" transform="translate(99,244)"/>
<path d="M0,0 Z " fill="#000000" transform="translate(352,239)"/>
<path d="M0,0 Z " fill="#000000" transform="translate(351,236)"/>
<path d="M0,0 Z " fill="#000000" transform="translate(262,233)"/>
<path d="M0,0 Z " fill="#000000" transform="translate(184,231)"/>
<path d="M0,0 Z " fill="#000000" transform="translate(183,228)"/>
<path d="M0,0 Z " fill="#000000" transform="translate(260,227)"/>
<path d="M0,0 Z " fill="#000000" transform="translate(259,224)"/>
<path d="M0,0 Z " fill="#000000" transform="translate(347,223)"/>
<path d="M0,0 Z " fill="#000000" transform="translate(181,222)"/>
<path d="M0,0 Z " fill="#000000" transform="translate(180,218)"/>
<path d="M0,0 Z " fill="#000000" transform="translate(423,217)"/>
<path d="M0,0 Z " fill="#000000" transform="translate(179,215)"/>
<path d="M0,0 Z " fill="#000000" transform="translate(255,211)"/>
<path d="M0,0 Z " fill="#000000" transform="translate(343,210)"/>
<path d="M0,0 Z " fill="#000000" transform="translate(177,209)"/>
<path d="M0,0 Z " fill="#000000" transform="translate(342,207)"/>
<path d="M0,0 Z " fill="#000000" transform="translate(419,204)"/>
<path d="M0,0 Z " fill="#000000" transform="translate(341,204)"/>
<path d="M0,0 Z " fill="#000000" transform="translate(175,202)"/>
<path d="M0,0 Z " fill="#000000" transform="translate(418,201)"/>
<path d="M0,0 Z " fill="#000000" transform="translate(340,201)"/>
<path d="M0,0 Z " fill="#000000" transform="translate(252,201)"/>
<path d="M0,0 Z " fill="#000000" transform="translate(417,198)"/>
<path d="M0,0 Z " fill="#000000" transform="translate(251,198)"/>
<path d="M0,0 Z " fill="#000000" transform="translate(338,194)"/>
<path d="M0,0 Z " fill="#000000" transform="translate(172,192)"/>
<path d="M0,0 Z " fill="#000000" transform="translate(337,191)"/>
<path d="M0,0 Z " fill="#000000" transform="translate(414,188)"/>
<path d="M0,0 Z " fill="#000000" transform="translate(336,188)"/>
<path d="M0,0 Z " fill="#000000" transform="translate(248,188)"/>
<path d="M0,0 Z " fill="#000000" transform="translate(412,182)"/>
<path d="M0,0 Z " fill="#000000" transform="translate(334,181)"/>
<path d="M0,0 Z " fill="#000000" transform="translate(168,179)"/>
<path d="M0,0 Z " fill="#000000" transform="translate(333,178)"/>
<path d="M0,0 Z " fill="#000000" transform="translate(244,175)"/>
<path d="M0,0 Z " fill="#000000" transform="translate(165,169)"/>
<path d="M0,0 Z " fill="#000000" transform="translate(330,168)"/>
<path d="M0,0 Z " fill="#000000" transform="translate(469,166)"/>
<path d="M0,0 Z " fill="#000000" transform="translate(407,166)"/>
<path d="M0,0 Z " fill="#000000" transform="translate(164,166)"/>
<path d="M0,0 Z " fill="#000000" transform="translate(329,165)"/>
<path d="M0,0 Z " fill="#000000" transform="translate(163,163)"/>
<path d="M0,0 Z " fill="#000000" transform="translate(240,162)"/>
<path d="M0,0 Z " fill="#000000" transform="translate(239,159)"/>
<path d="M0,0 Z " fill="#000000" transform="translate(327,158)"/>
<path d="M0,0 Z " fill="#000000" transform="translate(326,155)"/>
<path d="M0,0 Z " fill="#000000" transform="translate(403,153)"/>
<path d="M0,0 Z " fill="#000000" transform="translate(160,153)"/>
<path d="M0,0 Z " fill="#000000" transform="translate(325,152)"/>
<path d="M0,0 Z " fill="#000000" transform="translate(475,151)"/>
<path d="M0,0 Z " fill="#000000" transform="translate(159,150)"/>
<path d="M0,0 Z " fill="#000000" transform="translate(158,147)"/>
<path d="M0,0 Z " fill="#000000" transform="translate(157,144)"/>
<path d="M0,0 Z " fill="#000000" transform="translate(234,143)"/>
<path d="M0,0 Z " fill="#000000" transform="translate(322,142)"/>
<path d="M0,0 Z " fill="#000000" transform="translate(321,139)"/>
<path d="M0,0 Z " fill="#000000" transform="translate(155,137)"/>
<path d="M0,0 Z " fill="#000000" transform="translate(320,136)"/>
<path d="M0,0 Z " fill="#000000" transform="translate(154,134)"/>
<path d="M0,0 Z " fill="#000000" transform="translate(153,131)"/>
<path d="M0,0 Z " fill="#000000" transform="translate(152,128)"/>
<path d="M0,0 Z " fill="#000000" transform="translate(317,126)"/>
<path d="M0,0 Z " fill="#000000" transform="translate(394,124)"/>
<path d="M0,0 Z " fill="#000000" transform="translate(151,124)"/>
<path d="M0,0 Z " fill="#000000" transform="translate(316,123)"/>
<path d="M0,0 Z " fill="#000000" transform="translate(393,121)"/>
<path d="M0,0 Z " fill="#000000" transform="translate(150,121)"/>
<path d="M0,0 Z " fill="#000000" transform="translate(149,118)"/>
<path d="M0,0 Z " fill="#000000" transform="translate(226,117)"/>
<path d="M0,0 Z " fill="#000000" transform="translate(314,116)"/>
<path d="M0,0 Z " fill="#000000" transform="translate(148,115)"/>
<path d="M0,0 Z " fill="#000000" transform="translate(225,114)"/>
<path d="M0,0 Z " fill="#000000" transform="translate(313,113)"/>
<path d="M0,0 Z " fill="#000000" transform="translate(390,111)"/>
<path d="M0,0 Z " fill="#000000" transform="translate(224,111)"/>
<path d="M0,0 Z " fill="#000000" transform="translate(147,111)"/>
<path d="M0,0 Z " fill="#000000" transform="translate(389,108)"/>
<path d="M0,0 Z " fill="#000000" transform="translate(146,108)"/>
<path d="M0,0 Z " fill="#000000" transform="translate(311,106)"/>
<path d="M0,0 Z " fill="#000000" transform="translate(388,105)"/>
<path d="M0,0 Z " fill="#000000" transform="translate(145,105)"/>
<path d="M0,0 Z " fill="#000000" transform="translate(310,103)"/>
<path d="M0,0 Z " fill="#000000" transform="translate(387,102)"/>
<path d="M0,0 Z " fill="#000000" transform="translate(144,102)"/>
<path d="M0,0 Z " fill="#000000" transform="translate(219,95)"/>
<path d="M0,0 Z " fill="#000000" transform="translate(475,93)"/>
<path d="M0,0 Z " fill="#000000" transform="translate(307,93)"/>
<path d="M0,0 Z " fill="#000000" transform="translate(384,92)"/>
<path d="M0,0 Z " fill="#000000" transform="translate(383,89)"/>
<path d="M0,0 Z " fill="#000000" transform="translate(217,88)"/>
<path d="M0,0 Z " fill="#000000" transform="translate(305,86)"/>
<path d="M0,0 Z " fill="#000000" transform="translate(216,85)"/>
<path d="M0,0 Z " fill="#000000" transform="translate(304,83)"/>
<path d="M0,0 Z " fill="#000000" transform="translate(138,82)"/>
<path d="M0,0 Z " fill="#000000" transform="translate(215,81)"/>
<path d="M0,0 Z " fill="#000000" transform="translate(137,79)"/>
<path d="M0,0 Z " fill="#000000" transform="translate(214,78)"/>
<path d="M0,0 Z " fill="#000000" transform="translate(379,76)"/>
<path d="M0,0 Z " fill="#000000" transform="translate(136,76)"/>
<path d="M0,0 Z " fill="#000000" transform="translate(378,73)"/>
<path d="M0,0 Z " fill="#000000" transform="translate(377,70)"/>
<path d="M0,0 Z " fill="#000000" transform="translate(134,69)"/>
<path d="M0,0 Z " fill="#000000" transform="translate(211,68)"/>
<path d="M0,0 Z " fill="#000000" transform="translate(376,67)"/>
<path d="M0,0 Z " fill="#000000" transform="translate(133,66)"/>
<path d="M0,0 Z " fill="#000000" transform="translate(298,64)"/>
<path d="M0,0 Z " fill="#000000" transform="translate(132,63)"/>
<path d="M0,0 Z " fill="#000000" transform="translate(209,62)"/>
<path d="M0,0 Z " fill="#000000" transform="translate(297,61)"/>
<path d="M0,0 Z " fill="#000000" transform="translate(131,60)"/>
<path d="M0,0 Z " fill="#000000" transform="translate(373,57)"/>
<path d="M0,0 Z " fill="#000000" transform="translate(205,49)"/>
<path d="M0,0 L3,1 Z " fill="#000000" transform="translate(376,46)"/>
<path d="M0,0 L3,1 Z " fill="#000000" transform="translate(432,44)"/>
<path d="M0,0 L3,1 Z " fill="#000000" transform="translate(381,44)"/>
<path d="M0,0 L3,1 Z " fill="#000000" transform="translate(429,43)"/>
<path d="M0,0 L3,1 Z " fill="#000000" transform="translate(384,43)"/>
<path d="M0,0 L3,1 Z " fill="#000000" transform="translate(388,42)"/>
<path d="M0,0 L2,1 Z " fill="#000000" transform="translate(337,475)"/>
<path d="M0,0 L2,1 Z " fill="#000000" transform="translate(172,475)"/>
<path d="M0,0 Z " fill="#000000" transform="translate(332,467)"/>
<path d="M0,0 Z " fill="#000000" transform="translate(389,401)"/>
<path d="M0,0 Z " fill="#000000" transform="translate(144,391)"/>
<path d="M0,0 Z " fill="#000000" transform="translate(139,375)"/>
<path d="M0,0 Z " fill="#000000" transform="translate(125,329)"/>
<path d="M0,0 Z " fill="#000000" transform="translate(200,283)"/>
<path d="M0,0 Z " fill="#000000" transform="translate(198,277)"/>
<path d="M0,0 Z " fill="#000000" transform="translate(107,270)"/>
<path d="M0,0 Z " fill="#000000" transform="translate(93,225)"/>
<path d="M0,0 L2,1 Z " fill="#000000" transform="translate(428,223)"/>
<path d="M0,0 Z " fill="#000000" transform="translate(421,211)"/>
<path d="M0,0 Z " fill="#000000" transform="translate(416,195)"/>
<path d="M0,0 Z " fill="#000000" transform="translate(411,179)"/>
<path d="M0,0 Z " fill="#000000" transform="translate(470,164)"/>
<path d="M0,0 Z " fill="#000000" transform="translate(471,162)"/>
<path d="M0,0 Z " fill="#000000" transform="translate(401,147)"/>
<path d="M0,0 Z " fill="#000000" transform="translate(232,137)"/>
<path d="M0,0 Z " fill="#000000" transform="translate(142,96)"/>
<path d="M0,0 Z " fill="#000000" transform="translate(471,82)"/>
<path d="M0,0 Z " fill="#000000" transform="translate(464,69)"/>
<path d="M0,0 L2,1 Z " fill="#000000" transform="translate(448,53)"/>
<path d="M0,0 L2,1 Z " fill="#000000" transform="translate(444,50)"/>
<path d="M0,0 L2,1 Z " fill="#000000" transform="translate(441,48)"/>
<path d="M0,0 Z " fill="#000000" transform="translate(204,47)"/>
<path d="M0,0 Z " fill="#000000" transform="translate(38,47)"/>
<path d="M0,0 L2,1 Z " fill="#000000" transform="translate(439,47)"/>
<path d="M0,0 L2,1 Z " fill="#000000" transform="translate(374,47)"/>
<path d="M0,0 L2,1 Z " fill="#000000" transform="translate(437,46)"/>
<path d="M0,0 L2,1 Z " fill="#000000" transform="translate(435,45)"/>
<path d="M0,0 L2,1 Z " fill="#000000" transform="translate(379,45)"/>
<path d="M0,0 L2,1 Z " fill="#000000" transform="translate(118,45)"/>
<path d="M0,0 L2,1 Z " fill="#000000" transform="translate(285,44)"/>
<path d="M0,0 L2,1 Z " fill="#000000" transform="translate(207,44)"/>
<path d="M0,0 L2,1 Z " fill="#000000" transform="translate(116,44)"/>
<path d="M0,0 Z " fill="#000000" transform="translate(334,473)"/>
<path d="M0,0 Z " fill="#000000" transform="translate(175,472)"/>
<path d="M0,0 Z " fill="#000000" transform="translate(342,470)"/>
<path d="M0,0 Z " fill="#000000" transform="translate(346,464)"/>
<path d="M0,0 Z " fill="#000000" transform="translate(348,461)"/>
<path d="M0,0 Z " fill="#000000" transform="translate(183,461)"/>
<path d="M0,0 Z " fill="#000000" transform="translate(353,454)"/>
<path d="M0,0 Z " fill="#000000" transform="translate(355,451)"/>
<path d="M0,0 Z " fill="#000000" transform="translate(367,434)"/>
<path d="M0,0 Z " fill="#000000" transform="translate(206,428)"/>
<path d="M0,0 Z " fill="#000000" transform="translate(378,418)"/>
<path d="M0,0 Z " fill="#000000" transform="translate(213,418)"/>
<path d="M0,0 Z " fill="#000000" transform="translate(220,408)"/>
<path d="M0,0 Z " fill="#000000" transform="translate(427,224)"/>
<path d="M0,0 Z " fill="#000000" transform="translate(430,222)"/>
<path d="M0,0 Z " fill="#000000" transform="translate(436,214)"/>
<path d="M0,0 Z " fill="#000000" transform="translate(437,213)"/>
<path d="M0,0 Z " fill="#000000" transform="translate(438,212)"/>
<path d="M0,0 Z " fill="#000000" transform="translate(441,208)"/>
<path d="M0,0 Z " fill="#000000" transform="translate(444,204)"/>
<path d="M0,0 Z " fill="#000000" transform="translate(445,203)"/>
<path d="M0,0 Z " fill="#000000" transform="translate(448,199)"/>
<path d="M0,0 Z " fill="#000000" transform="translate(449,198)"/>
<path d="M0,0 Z " fill="#000000" transform="translate(457,187)"/>
<path d="M0,0 Z " fill="#000000" transform="translate(459,184)"/>
<path d="M0,0 Z " fill="#000000" transform="translate(468,169)"/>
<path d="M0,0 Z " fill="#000000" transform="translate(64,134)"/>
<path d="M0,0 Z " fill="#000000" transform="translate(62,128)"/>
<path d="M0,0 Z " fill="#000000" transform="translate(463,68)"/>
<path d="M0,0 Z " fill="#000000" transform="translate(462,67)"/>
<path d="M0,0 Z " fill="#000000" transform="translate(459,63)"/>
<path d="M0,0 Z " fill="#000000" transform="translate(458,62)"/>
<path d="M0,0 Z " fill="#000000" transform="translate(453,57)"/>
<path d="M0,0 Z " fill="#000000" transform="translate(452,56)"/>
<path d="M0,0 Z " fill="#000000" transform="translate(451,55)"/>
<path d="M0,0 Z " fill="#000000" transform="translate(450,54)"/>
<path d="M0,0 Z " fill="#000000" transform="translate(447,52)"/>
<path d="M0,0 Z " fill="#000000" transform="translate(446,51)"/>
<path d="M0,0 Z " fill="#000000" transform="translate(125,50)"/>
<path d="M0,0 Z " fill="#000000" transform="translate(443,49)"/>
<path d="M0,0 Z " fill="#000000" transform="translate(291,49)"/>
<path d="M0,0 Z " fill="#000000" transform="translate(124,49)"/>
<path d="M0,0 Z " fill="#000000" transform="translate(290,48)"/>
<path d="M0,0 Z " fill="#000000" transform="translate(123,48)"/>
<path d="M0,0 Z " fill="#000000" transform="translate(289,47)"/>
<path d="M0,0 Z " fill="#000000" transform="translate(122,47)"/>
<path d="M0,0 Z " fill="#000000" transform="translate(288,46)"/>
<path d="M0,0 Z " fill="#000000" transform="translate(120,46)"/>
<path d="M0,0 Z " fill="#000000" transform="translate(287,45)"/>
</svg>
